<svg width="25" height="19" viewBox="0 0 25 19" fill="none" xmlns="http://www.w3.org/2000/svg">
<path d="M22.9672 1.63125C22.2898 1.14375 20.4023 0.496094 12.4934 0.496094C4.01797 0.496094 2.76055 1.23984 2.35701 1.4832C0.209356 2.77341 0.00545042 8.48552 -0.0132751 9.64372C0.0125061 11.1735 0.259772 16.2629 2.35547 17.5219C2.75823 17.7644 4.00859 18.5039 12.4934 18.5039C20.4074 18.5039 22.2926 17.8594 22.9672 17.3738C24.7976 16.057 25.0082 11.5223 25.0133 9.62385C25.0086 8.09729 24.8484 2.98635 22.9672 1.63127L22.9672 1.63125ZM22.0547 16.1059C21.7824 16.3019 20.2191 16.9414 12.4933 16.9414C5.02417 16.9414 3.45698 16.3617 3.16089 16.1832C2.40699 15.7308 1.61128 13.3297 1.54881 9.63943C1.61053 5.9574 2.41717 3.26951 3.1625 2.82263C3.45938 2.64333 5.0324 2.05896 12.4933 2.05896C20.2128 2.05896 21.7804 2.70273 22.0546 2.89961C22.7238 3.38164 23.4402 5.91914 23.4507 9.6289C23.4402 13.3969 22.7191 15.6277 22.0546 16.1059H22.0547ZM17.5882 8.8855L10.5586 4.5718C10.4401 4.50034 10.3048 4.46164 10.1664 4.45965C10.028 4.45766 9.8916 4.49245 9.77109 4.56047C9.65047 4.6285 9.55009 4.72736 9.48022 4.84692C9.41035 4.96648 9.3735 5.10246 9.37343 5.24094V13.8698C9.37354 14.077 9.45588 14.2757 9.60237 14.4222C9.74886 14.5686 9.94751 14.651 10.1547 14.6511C10.2969 14.6511 10.4364 14.6124 10.5582 14.539L17.5879 10.2238C17.8223 10.082 17.9656 9.82849 17.9656 9.55463C17.9656 9.28078 17.8226 9.02651 17.5883 8.8855H17.5882ZM10.9363 12.4859V6.62412L15.6727 9.55459L10.9363 12.4859Z" fill="#7D0202"/>
</svg>
